<?xml version="1.0" encoding="UTF-8"?>
<svg id="_图层_2" data-name="图层 2" xmlns="http://www.w3.org/2000/svg" width="74px" height="78px" >
    <path class="cls-1" d="M41.76,22.17L25.53,12.52c-.59-2.12-2.59-3.76-4.94-3.76s-4.23,1.53-4.82,3.65l-10.82,6c-2.71,.12-4.94,2.35-4.94,5.06,0,1.76,.82,3.29,2.23,4.12v30.82c0,1.65,1.29,2.94,2.94,2.94s2.94-1.29,2.94-2.94V27.58c1.29-.94,2.23-2.47,2.23-4.12,0-.47-.12-.82-.12-1.29l7.53-4.23c.82,.59,1.88,.94,2.94,.94s2-.35,2.82-.82l15.29,9.06c.47,.24,.94,.47,1.53,.47,.94,0,2-.47,2.47-1.41,.82-1.41,.35-3.18-1.06-4ZM4.94,25.46c-1.18,0-2-.94-2-2s.94-2,2-2,2.12,.82,2.12,2-.94,2-2.12,2Zm15.64-9.65c-1.18,0-2-.94-2-2s.94-2,2-2,2,.94,2,2-.94,2-2,2Z"/>
    <path class="cls-1" d="M51.87,57.45c1.65,0,2.94-1.29,2.94-2.94v-16.7c1.18-.82,1.88-2.23,1.88-3.88,0-2.82-2.35-5.06-5.18-5.06s-5.06,2.23-5.06,5.06c0,1.88,1.06,3.53,2.47,4.35v16.23c0,1.65,1.29,2.94,2.94,2.94Zm-.35-25.53c1.06,0,2,.94,2,2s-.82,2-2,2-2-.94-2-2,.94-2,2-2Z"/>
    <path class="cls-1" d="M68.58,17.93L38.93,.41c-1.41-.82-3.18-.35-4,1.06-.82,1.41-.35,3.18,1.06,4l27.52,16.23c-.12,.47-.24,.82-.24,1.29,0,2,1.18,3.65,2.82,4.59v25.41c-1.88,.82-3.18,2.59-3.18,4.71v.59l-13.53,7.76c-1.41,.82-1.88,2.59-1.06,4,.59,.94,1.53,1.41,2.59,1.41,.47,0,.94-.12,1.41-.35l14.7-8.47c.35,.12,.71,.12,1.06,.12,2.82,0,5.06-2.23,5.06-5.06,0-1.29-.47-2.35-1.18-3.29l-.12-27.76c.94-.94,1.53-2.23,1.53-3.65,0-2.71-2.12-4.94-4.82-5.06Zm-.59,41.76c-1.18,0-2-.94-2-2s.94-2,2-2,2,.94,2,2-.82,2-2,2Zm.24-34.7c-1.18,0-2-.94-2-2s.94-2,2-2,2,.94,2,2-.82,2-2,2Z"/>
    <path class="cls-1" d="M33.52,37.93c-.35,0-.71,0-.94,.12l-9.17-5.41c-.24-2.59-2.47-4.47-5.06-4.47-2.82,0-5.06,2.23-5.06,5.06,0,1.41,.59,2.59,1.41,3.53v23.76c-.94,.94-1.65,2.23-1.65,3.65,0,2.82,2.23,5.06,5.18,5.06h.59l12.59,7.18c.47,.24,.94,.35,1.41,.35,1.06,0,2-.47,2.59-1.41,.82-1.41,.35-3.18-1.06-4l-11.06-6.23c0-.24,.12-.59,.12-.82,0-2-1.18-3.65-2.82-4.47v-22.11l7.88,4.71c0,.24-.12,.35-.12,.59,0,1.88,1.06,3.53,2.71,4.47v10.59c0,1.65,1.29,2.94,2.94,2.94s2.94-1.29,2.94-2.94v-11.17c1.06-.94,1.65-2.23,1.65-3.76,.12-2.94-2.23-5.29-5.06-5.18Zm-15.29,28.11c-1.18,0-2-.94-2-2s.94-2,2-2,2,.94,2,2-.94,2-2,2Zm.12-30.94c-1.06,0-2-.94-2-2s.94-2,2-2,2,.94,2,2-.94,2-2,2Zm15.41,9.88c-1.18,0-2-.94-2-2s.94-2,2-2,2,.94,2,2-.82,2-2,2Z"/>
<style>
  .cls-1 {
    fill: #339498;
  }
</style>
</svg>